<?xml version="1.0" standalone="no"?><svg xmlns="http://www.w3.org/2000/svg" viewBox="0 0 1440 320"><path fill="#0099ff" fill-opacity="0.6" d="M0,192L0,224L36.9,224L36.9,32L73.8,32L73.8,288L110.8,288L110.8,64L147.7,64L147.7,64L184.6,64L184.6,0L221.5,0L221.5,224L258.5,224L258.5,224L295.4,224L295.4,288L332.3,288L332.3,160L369.2,160L369.2,160L406.2,160L406.2,96L443.1,96L443.1,128L480,128L480,288L516.9,288L516.9,288L553.8,288L553.8,192L590.8,192L590.8,128L627.7,128L627.7,160L664.6,160L664.6,32L701.5,32L701.5,288L738.5,288L738.5,320L775.4,320L775.4,32L812.3,32L812.3,96L849.2,96L849.2,192L886.2,192L886.2,224L923.1,224L923.1,128L960,128L960,96L996.9,96L996.9,96L1033.8,96L1033.8,64L1070.8,64L1070.8,192L1107.7,192L1107.7,192L1144.6,192L1144.6,192L1181.5,192L1181.5,256L1218.5,256L1218.5,0L1255.4,0L1255.4,224L1292.3,224L1292.3,192L1329.2,192L1329.2,64L1366.2,64L1366.2,64L1403.1,64L1403.1,0L1440,0L1440,320L1403.1,320L1403.1,320L1366.2,320L1366.2,320L1329.2,320L1329.2,320L1292.3,320L1292.3,320L1255.4,320L1255.4,320L1218.5,320L1218.5,320L1181.5,320L1181.5,320L1144.6,320L1144.6,320L1107.7,320L1107.7,320L1070.8,320L1070.8,320L1033.8,320L1033.8,320L996.9,320L996.9,320L960,320L960,320L923.1,320L923.1,320L886.2,320L886.2,320L849.2,320L849.2,320L812.3,320L812.3,320L775.4,320L775.4,320L738.5,320L738.5,320L701.5,320L701.5,320L664.6,320L664.6,320L627.7,320L627.7,320L590.8,320L590.8,320L553.8,320L553.8,320L516.9,320L516.9,320L480,320L480,320L443.1,320L443.1,320L406.2,320L406.2,320L369.2,320L369.2,320L332.3,320L332.3,320L295.4,320L295.4,320L258.5,320L258.5,320L221.5,320L221.5,320L184.6,320L184.6,320L147.7,320L147.7,320L110.8,320L110.8,320L73.8,320L73.8,320L36.9,320L36.9,320L0,320L0,320Z"></path></svg>